<svg xmlns="http://www.w3.org/2000/svg" width="96" height="96" viewBox="0 0 96 96" fill="none">
  <defs>
    <linearGradient id="body" x1="48" y1="8" x2="48" y2="88" gradientUnits="userSpaceOnUse">
      <stop stop-color="#4a5568"/>
      <stop offset="0.5" stop-color="#2d3748"/>
      <stop offset="1" stop-color="#1a202c"/>
    </linearGradient>
    <linearGradient id="glass" x1="36" y1="20" x2="60" y2="44" gradientUnits="userSpaceOnUse">
      <stop stop-color="#63b3ed" stop-opacity="0.65"/>
      <stop offset="1" stop-color="#2c5282" stop-opacity="0.4"/>
    </linearGradient>
    <filter id="sh" x="-20%" y="-20%" width="140%" height="140%">
      <feDropShadow dx="0" dy="2" stdDeviation="2" flood-opacity="0.45"/>
    </filter>
  </defs>
  <ellipse cx="48" cy="52" rx="28" ry="32" fill="rgba(0,0,0,0.25)"/>
  <path filter="url(#sh)" d="M48 12c12 0 22 8 24 20l2 16c0 14-8 26-20 30h-12c-12-4-20-16-20-30l2-16c2-12 12-20 24-20z" fill="url(#body)" stroke="#1a202c" stroke-width="2"/>
  <path d="M38 28h20c4 0 8 4 9 10l1 8H28l1-8c1-6 5-10 9-10z" fill="url(#glass)" stroke="#2c5282" stroke-width="1.2" opacity="0.95"/>
  <path d="M34 52h28" stroke="#4a5568" stroke-width="2" stroke-linecap="round"/>
  <ellipse cx="22" cy="38" rx="5" ry="8" fill="#171923" stroke="#2d3748" stroke-width="1.5"/>
  <ellipse cx="74" cy="38" rx="5" ry="8" fill="#171923" stroke="#2d3748" stroke-width="1.5"/>
  <ellipse cx="26" cy="66" rx="5" ry="8" fill="#171923" stroke="#2d3748" stroke-width="1.5"/>
  <ellipse cx="70" cy="66" rx="5" ry="8" fill="#171923" stroke="#2d3748" stroke-width="1.5"/>
  <circle cx="40" cy="18" r="3" fill="#f6e05e"/>
  <circle cx="56" cy="18" r="3" fill="#f6e05e"/>
  <path d="M42 76h12l-2 8h-8z" fill="#2d3748"/>
</svg>
